<svg xmlns="http://www.w3.org/2000/svg" viewBox="0 0 64 64" width="100" height="100"><g id="_24_Hr" data-name="24 Hr"><path d="M61,53H60V42a9.01,9.01,0,0,0-9-9H44V26a1,1,0,0,0-1-1H38a1,1,0,0,0,0,2h4V47H4V27H8a1,1,0,0,0,0-2H3a1,1,0,0,0-1,1V54a1,1,0,0,0,1,1H4v1a3,3,0,0,0,3,3h4.812a5.986,5.986,0,0,0,10.376,0H45.812a5.986,5.986,0,0,0,10.376,0H59a3,3,0,0,0,3-3V54A1,1,0,0,0,61,53ZM58,42v2H49a1,1,0,0,1-1-1V35h3A7.008,7.008,0,0,1,58,42ZM46,35v8a3,3,0,0,0,3,3h9v7H56.188a5.986,5.986,0,0,0-10.376,0H44V35ZM42,49v4H22.188a5.986,5.986,0,0,0-10.376,0H4V49ZM7,57a1,1,0,0,1-1-1V55h5.09a5.6,5.6,0,0,0,0,2Zm10,3a4,4,0,1,1,4-4A4,4,0,0,1,17,60Zm5.91-3a5.6,5.6,0,0,0,0-2H45.09a5.6,5.6,0,0,0,0,2ZM51,60a4,4,0,1,1,4-4A4,4,0,0,1,51,60Zm9-4a1,1,0,0,1-1,1H56.91a5.6,5.6,0,0,0,0-2H60Z"></path><path d="M19.447,26.658l-1.789.895A2.984,2.984,0,0,0,16,30.236V31a1,1,0,0,0,1,1h4a1,1,0,0,0,0-2H18.027a1,1,0,0,1,.526-.658l1.789-.895A2.984,2.984,0,0,0,22,25.764V25a3,3,0,0,0-6,0,1,1,0,0,0,2,0,1,1,0,0,1,2,0v.764A.994.994,0,0,1,19.447,26.658Z"></path><path d="M28.341,22.06a1,1,0,0,0-1.11.3l-5,6A1,1,0,0,0,23,30h4v1a1,1,0,0,0,2,0V30h1a1,1,0,0,0,0-2H29V23A1,1,0,0,0,28.341,22.06ZM27,28H25.135L27,25.762Z"></path><path d="M16.5,37.258A13,13,0,1,0,13.439,17.2l-.127-2.093a1,1,0,1,0-2,.121l.294,4.83c0,.029.02.053.024.081a.992.992,0,0,0,.071.246,1.164,1.164,0,0,0,.069.142.973.973,0,0,0,.171.192c.03.028.046.066.079.09.016.011.036.015.052.026s.019.021.032.028.049.013.072.024a1.029,1.029,0,0,0,.24.081.912.912,0,0,0,.115.017c.025,0,.048.012.073.012a.99.99,0,0,0,.259-.034l4.83-1.294a1,1,0,0,0-.517-1.932l-1.991.533a10.971,10.971,0,1,1-3,5.679,1,1,0,1,0-1.964-.372A13.013,13.013,0,0,0,16.5,37.258Z"></path></g></svg>