<svg xmlns="http://www.w3.org/2000/svg" viewBox="0 0 64 64" width="100" height="100"><g id="Ruler_and_pencil" data-name="Ruler and pencil"><path d="M18,2H2V62H62V46H18ZM4,4H16V6H11V8h5v2H13v2h3v2H11v2h5v2H13v2h3v2H11v2h5v2H13v2h3v2H11v2h5v2H13v2h3v2H11v2h5v2H13v2h3v2H4ZM60,48V60H58V55H56v5H54V57H52v3H50V55H48v5H46V57H44v3H42V55H40v5H38V57H36v3H34V55H32v5H30V57H28v3H26V55H24v5H22V57H20v3H18V55H16v5H14V57H12v3H10V55H8v5H4V48Z"></path><path d="M60.012,13.887a7,7,0,0,0-9.9-9.9L23.647,30.452,19.523,44.477l14.024-4.125ZM26.364,37.636a7.933,7.933,0,0,0-2.278-1.586l1.054-3.581,5.309,1.052,1.077,5.341L27.95,39.914A7.941,7.941,0,0,0,26.364,37.636ZM47.285,15.3,31,31.591l-4.721-.936L44.456,12.473ZM33.339,37.732l-.949-4.708L48.7,16.715l2.828,2.829ZM51.526,5.4A5,5,0,0,1,58.6,12.473L56.477,14.6,49.405,7.523Zm3.536,10.607L52.941,18.13l-3.535-3.536L45.87,11.059l2.121-2.121ZM23.513,38A5.8,5.8,0,0,1,26,40.487l-3.524,1.036Z"></path></g></svg>